<?xml version="1.0" standalone="no"?>
<!DOCTYPE svg PUBLIC "-//W3C//DTD SVG 20010904//EN"
 "http://www.w3.org/TR/2001/REC-SVG-20010904/DTD/svg10.dtd">
<svg version="1.0" xmlns="http://www.w3.org/2000/svg"
 width="3333.000000pt" height="3333.000000pt" viewBox="0 0 3333.000000 3333.000000"
 preserveAspectRatio="xMidYMid meet">
<metadata>
Created by potrace 1.11, written by Peter Selinger 2001-2013
</metadata>
<g transform="translate(0.000000,3333.000000) scale(0.100000,-0.100000)"
fill="#000000" stroke="none">
<path d="M13220 28477 c-53 -28 -79 -73 -74 -127 2 -22 -3 -72 -11 -112 -9
-40 -18 -95 -21 -123 -18 -188 -134 -380 -440 -724 -22 -25 -98 -113 -169
-196 -70 -82 -140 -164 -154 -180 -61 -71 -204 -258 -273 -360 -176 -258 -288
-488 -353 -728 -25 -94 -29 -109 -40 -172 -26 -138 -26 -358 -1 -490 3 -16 8
-43 12 -59 11 -62 68 -219 116 -326 134 -295 268 -490 488 -711 155 -155 278
-231 408 -248 204 -29 354 48 440 225 88 180 67 376 -62 577 -40 64 -60 88
-166 200 -126 133 -216 279 -271 442 -33 97 -33 255 -1 370 43 151 143 338
306 575 81 117 333 457 356 480 10 9 86 115 142 195 190 275 293 501 323 715
13 93 4 274 -16 328 -5 12 -7 22 -4 22 8 0 -44 139 -77 206 -43 88 -124 171
-207 212 -83 42 -183 45 -251 9z"/>
<path d="M16182 28389 c-18 -4 -44 -16 -56 -28 -19 -18 -77 -161 -91 -226 -24
-111 -81 -259 -151 -392 -145 -273 -188 -329 -515 -658 -249 -251 -297 -305
-369 -410 -104 -153 -162 -303 -205 -525 -28 -144 -27 -553 1 -692 7 -38 14
-71 19 -103 3 -16 13 -57 21 -90 9 -33 17 -69 20 -81 22 -112 112 -319 229
-525 108 -189 175 -330 210 -445 57 -182 86 -236 180 -329 94 -94 168 -135
255 -142 177 -15 367 103 454 281 44 92 56 150 51 266 -6 187 -84 380 -298
744 -136 231 -183 338 -216 491 -10 46 -15 84 -26 205 -6 65 -6 279 1 320 14
93 87 199 269 394 6 6 59 68 117 137 183 218 286 366 392 564 70 130 134 320
152 450 14 99 7 247 -15 335 -28 113 -107 271 -169 340 -77 86 -185 135 -260
119z"/>
<path d="M14578 23585 c-2 -2 -84 -5 -183 -9 -99 -3 -220 -8 -270 -11 -49 -3
-130 -7 -180 -10 -49 -3 -121 -7 -160 -10 -38 -3 -104 -7 -145 -10 -41 -3
-100 -7 -130 -9 -30 -3 -97 -8 -148 -11 -51 -3 -101 -8 -110 -10 -9 -1 -60 -6
-112 -10 -52 -3 -112 -9 -133 -11 -80 -9 -204 -13 -568 -19 -613 -9 -967 -18
-1179 -29 -209 -11 -389 -23 -470 -31 -25 -2 -74 -7 -110 -10 -36 -3 -81 -8
-100 -10 -48 -6 -104 -13 -170 -20 -48 -6 -114 -15 -285 -40 -22 -3 -48 -9
-58 -11 -10 -3 -35 -8 -55 -10 -20 -3 -44 -7 -52 -9 -8 -2 -31 -7 -50 -10 -90
-15 -291 -63 -415 -100 -199 -59 -352 -119 -505 -197 -215 -112 -334 -199
-491 -358 -243 -246 -368 -523 -368 -814 1 -61 5 -133 10 -159 5 -29 5 -66 0
-90 -5 -23 -12 -67 -15 -97 -4 -30 -11 -91 -16 -135 -17 -149 -28 -265 -36
-400 -3 -55 -8 -129 -10 -165 -3 -36 -6 -447 -9 -915 -5 -1149 -17 -1922 -40
-2790 -2 -93 -7 -271 -10 -395 -3 -124 -8 -301 -10 -395 -27 -981 -20 -1976
21 -3245 5 -129 8 -449 8 -710 0 -418 -4 -561 -19 -805 -11 -165 -23 -342 -30
-430 -8 -99 -14 -186 -20 -290 -3 -49 -8 -112 -10 -140 -5 -59 -15 -248 -20
-395 -5 -129 -6 -800 -1 -893 5 -88 16 -232 21 -277 2 -19 7 -60 10 -90 13
-118 38 -270 61 -380 14 -63 29 -133 34 -155 18 -84 84 -285 130 -400 246
-604 680 -1047 1350 -1381 183 -91 619 -257 733 -279 9 -2 21 -6 26 -10 20
-12 459 -120 566 -138 66 -12 211 -38 235 -43 43 -8 352 -52 410 -59 30 -3 71
-8 90 -10 19 -2 60 -7 90 -10 30 -3 73 -8 95 -10 51 -6 129 -12 230 -20 44 -3
103 -8 130 -10 28 -3 97 -7 155 -10 58 -3 130 -7 160 -10 30 -2 116 -7 190
-10 74 -4 167 -8 205 -10 39 -2 131 -7 205 -10 74 -3 178 -8 230 -10 52 -2
165 -7 250 -10 85 -3 202 -8 260 -10 58 -3 186 -7 285 -10 99 -4 227 -8 285
-10 58 -2 211 -7 340 -10 129 -3 296 -8 370 -10 490 -15 770 -19 1440 -20 655
0 890 4 1090 20 25 2 86 6 135 10 50 3 113 8 140 11 28 3 73 7 100 9 48 4 128
13 190 21 17 2 53 6 80 9 69 8 436 65 444 69 3 2 28 7 54 10 64 9 333 69 477
107 63 17 122 32 130 34 8 1 80 24 160 50 466 151 866 376 1137 639 163 158
271 311 387 547 40 81 95 175 123 210 69 87 141 208 182 304 18 44 39 94 47
110 20 47 71 241 88 335 18 102 23 142 31 280 4 58 8 106 10 108 2 2 18 6 37
8 18 3 71 12 118 20 47 9 101 18 120 21 19 3 91 18 160 33 69 16 136 31 150
34 177 36 702 204 845 272 17 8 89 39 160 70 150 64 404 194 555 284 556 332
1016 739 1388 1227 54 71 236 338 291 428 149 240 319 596 438 915 49 131 156
468 167 523 2 12 10 42 16 67 18 71 107 505 114 558 3 26 8 61 11 77 12 85 25
185 29 225 2 25 7 68 10 95 21 177 29 379 29 690 0 230 -7 493 -17 595 -2 19
-7 71 -11 115 -3 44 -8 91 -10 105 -2 14 -6 50 -9 80 -8 86 -15 134 -71 485
-3 17 -10 50 -15 75 -10 46 -17 82 -26 135 -3 17 -28 116 -55 220 -27 105 -51
198 -54 208 -14 58 -95 300 -135 407 -234 617 -559 1140 -960 1540 -160 161
-197 195 -315 291 -512 418 -1119 732 -1795 927 -199 58 -558 142 -715 167
-16 3 -41 7 -55 10 -14 3 -41 7 -60 10 -19 3 -60 10 -90 15 -30 5 -80 12 -110
15 -30 4 -80 10 -110 14 -63 8 -138 7 -204 -3 -25 -4 -46 -4 -47 1 -1 4 -2
141 -4 303 -2 294 -11 626 -20 750 -8 111 -17 223 -20 260 -2 19 -6 64 -10
100 -3 36 -17 137 -31 225 -16 112 -22 175 -17 210 4 28 7 104 7 170 -2 250
-97 481 -282 694 -207 235 -562 452 -955 581 -135 45 -399 110 -507 125 -14 2
-50 8 -80 14 -30 6 -77 13 -105 16 -27 3 -61 7 -75 10 -14 2 -45 6 -70 9 -25
3 -85 9 -135 15 -120 13 -197 20 -274 26 -35 3 -87 7 -115 10 -28 2 -91 7
-141 11 -144 9 -186 13 -250 18 -33 3 -91 8 -130 11 -38 3 -88 8 -110 10 -22
2 -71 7 -110 10 -38 3 -86 8 -105 10 -19 2 -71 7 -115 10 -44 4 -91 8 -105 10
-14 2 -56 7 -95 10 -94 8 -151 14 -205 19 -46 5 -117 12 -217 21 -32 3 -78 8
-102 11 -24 3 -67 7 -95 9 -84 7 -179 16 -221 20 -22 3 -74 7 -115 10 -41 3
-93 7 -115 10 -22 2 -71 7 -110 10 -38 3 -88 7 -110 9 -22 3 -87 7 -145 11
-58 3 -123 8 -145 10 -22 3 -89 7 -150 11 -60 3 -141 8 -180 10 -77 5 -943 13
-947 9z m272 -709 c52 -3 147 -8 210 -11 63 -3 138 -8 165 -10 28 -3 91 -7
140 -10 50 -3 110 -7 135 -10 25 -2 79 -7 120 -10 41 -3 91 -8 110 -10 19 -3
64 -7 100 -10 36 -3 81 -7 100 -10 19 -2 64 -7 100 -10 36 -4 79 -8 95 -10 17
-2 57 -7 90 -10 33 -3 94 -10 135 -15 41 -5 100 -12 130 -15 30 -3 69 -8 85
-10 30 -4 275 -34 330 -40 17 -2 102 -13 190 -24 88 -11 185 -23 215 -26 30
-3 66 -8 80 -10 14 -2 50 -7 80 -10 30 -3 62 -8 70 -10 8 -2 46 -6 83 -10 37
-3 76 -8 85 -10 9 -1 44 -6 77 -9 33 -4 71 -9 85 -11 14 -2 90 -11 170 -20 80
-9 156 -18 170 -20 14 -2 54 -6 90 -10 36 -4 77 -8 92 -11 15 -2 49 -6 75 -9
48 -5 90 -10 168 -21 22 -3 54 -7 70 -10 17 -2 57 -8 90 -14 33 -5 105 -17
160 -26 55 -8 172 -29 260 -46 88 -16 177 -32 198 -35 21 -3 40 -9 42 -13 16
-26 -194 -265 -330 -376 -33 -27 -65 -53 -71 -59 -7 -5 -44 -35 -84 -65 -196
-148 -281 -222 -452 -391 -119 -118 -189 -194 -193 -211 -6 -21 -13 -28 -34
-29 -14 -1 -37 -2 -51 -4 -14 -1 -79 -6 -145 -10 -66 -4 -136 -8 -155 -10
l-35 -3 35 30 c209 181 416 376 712 673 l170 169 -5 49 c-4 48 -22 74 -62 92
-29 13 -67 13 -88 -1 -10 -7 -117 -108 -236 -226 -291 -285 -446 -430 -631
-590 -102 -88 -250 -208 -258 -209 -52 -10 -432 -21 -432 -13 0 9 32 40 190
184 129 117 113 103 195 175 38 33 76 67 85 75 9 8 49 44 90 80 102 88 157
139 268 245 88 85 94 94 95 132 1 48 -21 86 -64 109 -56 28 -91 13 -193 -85
-50 -48 -116 -110 -146 -137 -30 -27 -57 -51 -60 -54 -3 -3 -45 -41 -95 -85
-49 -43 -92 -81 -95 -84 -3 -4 -52 -46 -110 -95 -156 -133 -191 -165 -356
-327 -133 -131 -156 -149 -185 -150 -19 0 -96 -2 -171 -3 l-136 -3 56 47 c57
47 259 202 302 230 12 8 28 20 34 25 6 6 50 37 98 69 93 63 119 98 111 149 -9
59 -50 97 -105 97 -28 0 -424 -275 -559 -388 -13 -11 -64 -54 -114 -95 -49
-42 -105 -89 -123 -106 -31 -29 -39 -31 -110 -32 -145 -1 -245 1 -249 5 -4 4
259 222 374 310 68 51 83 71 83 110 0 60 -48 108 -99 99 -29 -4 -115 -69 -364
-272 -98 -81 -212 -170 -254 -199 l-77 -52 -158 1 c-87 1 -158 3 -158 6 0 3
24 30 54 61 45 47 107 121 179 212 73 92 72 146 -4 185 -22 12 -90 7 -104 -7
-2 -1 -31 -39 -64 -83 -66 -86 -198 -224 -297 -311 l-62 -55 -158 6 c-265 8
-439 16 -443 20 -2 2 63 68 144 147 214 207 301 295 319 320 43 61 -11 148
-92 148 -30 0 -48 -14 -177 -138 -121 -117 -378 -359 -440 -416 l-50 -46 -115
6 c-63 3 -133 7 -155 9 -22 3 -101 7 -175 11 -187 9 -188 9 -195 15 -3 3 23
28 57 55 35 27 68 53 74 59 6 5 22 18 35 28 362 266 449 344 449 397 0 42 -15
67 -51 86 -43 22 -68 13 -158 -54 -42 -32 -144 -106 -227 -165 -191 -136 -320
-239 -410 -327 l-72 -70 -108 5 c-60 2 -155 5 -211 6 -57 0 -103 2 -103 4 0 4
425 373 512 444 43 35 80 72 84 83 18 58 -37 138 -95 138 -16 0 -48 -14 -72
-32 -53 -38 -354 -281 -413 -333 -53 -47 -97 -84 -125 -105 -19 -14 -39 -29
-45 -35 -6 -5 -28 -23 -50 -39 -21 -16 -58 -48 -82 -72 l-43 -44 -206 4 c-113
1 -208 6 -212 9 -6 7 126 140 383 384 178 169 311 302 324 323 36 57 -17 140
-88 140 -35 0 -48 -7 -95 -52 -278 -268 -485 -462 -583 -548 -21 -19 -75 -66
-119 -105 -44 -38 -96 -86 -115 -106 l-36 -36 -100 3 c-54 2 -160 6 -234 8
-74 3 -152 5 -173 5 l-39 1 44 48 c25 26 71 76 104 111 32 35 97 100 144 145
201 191 517 515 534 548 17 32 18 41 7 77 -9 32 -20 45 -49 59 -20 10 -46 16
-57 14 -11 -2 -114 -100 -230 -216 -216 -217 -409 -401 -550 -522 -44 -38
-119 -109 -166 -157 -48 -48 -95 -88 -105 -89 -11 0 -53 2 -94 5 -41 4 -120 9
-175 13 -55 4 -109 8 -120 9 -11 1 -33 3 -48 4 l-29 1 43 36 c24 19 176 168
338 329 163 161 390 386 505 498 l209 204 -6 38 c-8 47 -40 83 -84 91 -42 8
-50 2 -198 -141 -66 -64 -185 -178 -264 -254 -79 -75 -164 -155 -189 -179 -25
-24 -106 -96 -181 -160 -178 -152 -318 -295 -361 -371 -20 -34 -42 -61 -51
-61 -14 0 -105 15 -214 35 -54 11 -189 46 -203 54 -11 6 2 25 49 77 70 77 338
345 415 414 173 158 375 326 550 458 45 33 84 68 88 77 14 38 6 77 -23 106
-32 31 -50 35 -84 17 -37 -19 -255 -186 -402 -307 -163 -134 -180 -149 -300
-260 -22 -20 -101 -91 -175 -158 -136 -122 -265 -251 -311 -311 l-25 -33 -40
18 c-21 10 -60 31 -86 47 l-48 28 74 96 c41 54 121 146 178 206 179 190 636
640 659 648 25 9 231 57 269 63 14 2 36 6 50 9 14 3 39 8 55 11 174 29 289 47
330 51 28 3 57 7 65 8 8 2 47 6 85 11 39 4 79 9 90 11 11 2 47 6 80 9 33 3 78
7 100 10 22 2 72 7 110 10 39 3 90 8 115 10 64 7 133 13 225 20 44 3 103 8
130 10 28 3 82 7 120 10 39 3 88 8 110 10 22 2 69 7 105 9 65 6 152 13 245 21
28 3 84 7 125 10 41 3 93 7 116 10 22 2 78 7 125 10 46 4 85 8 86 9 5 4 2038
-3 2123 -8z m-5225 -424 c-142 -119 -412 -384 -545 -532 -153 -170 -149 -167
-160 -150 -5 8 -10 18 -10 21 0 11 97 149 194 275 55 72 115 151 132 176 26
36 51 55 135 98 93 48 247 119 259 120 2 0 0 -4 -5 -8z m10115 -202 c98 -35
241 -106 307 -152 l46 -31 -99 -91 c-179 -163 -401 -390 -436 -446 -35 -55
-58 -125 -58 -174 0 -19 -6 -26 -20 -27 -11 -1 -23 -2 -27 -3 -5 -1 -33 -6
-63 -11 -30 -5 -57 -9 -60 -10 -3 -1 -32 -5 -65 -9 -32 -4 -66 -9 -75 -11 -8
-2 -44 -6 -80 -10 -36 -4 -72 -9 -81 -10 -9 -2 -52 -6 -95 -10 -43 -4 -86 -9
-95 -10 -8 -2 -55 -6 -105 -10 l-89 -6 140 138 c77 76 218 201 314 277 312
250 545 506 553 609 1 15 3 27 3 27 0 0 38 -14 85 -30z m538 -401 c24 -91 -16
-167 -150 -285 -86 -77 -151 -109 -316 -158 l-53 -15 18 22 c67 83 154 177
263 283 156 153 214 204 221 196 4 -4 12 -23 17 -43z m-11227 -1144 c35 -14
73 -30 84 -35 45 -20 177 -61 325 -101 72 -19 208 -48 305 -64 55 -9 112 -18
126 -21 15 -2 47 -6 70 -9 24 -3 60 -7 79 -10 19 -2 60 -7 90 -10 30 -3 71 -8
90 -10 19 -2 62 -6 95 -9 33 -3 87 -8 120 -11 33 -3 92 -8 130 -10 68 -4 188
-11 330 -20 39 -2 142 -7 230 -10 217 -8 387 -14 525 -20 63 -3 183 -7 265
-10 213 -8 560 -21 770 -30 66 -2 167 -7 225 -10 58 -3 157 -8 220 -10 63 -3
156 -7 205 -10 166 -10 249 -15 345 -20 52 -3 124 -8 160 -10 201 -14 275 -19
500 -30 69 -3 159 -8 200 -10 473 -26 2341 -26 2915 0 50 2 155 7 235 10 382
17 550 27 815 51 39 4 84 8 100 9 146 12 201 18 209 22 28 18 -19 -36 -174
-197 -248 -258 -264 -276 -332 -360 -123 -151 -198 -292 -212 -400 -7 -48 2
-68 41 -89 51 -27 135 47 300 264 50 66 154 192 230 280 76 88 187 221 248
295 204 250 192 238 240 245 41 5 75 9 160 20 28 3 61 8 75 10 14 2 45 7 70
10 234 30 573 104 697 152 10 4 -4 -21 -32 -56 -45 -57 -278 -330 -359 -421
-17 -19 -49 -58 -71 -85 -22 -28 -54 -66 -72 -85 -18 -19 -33 -38 -33 -42 0
-4 -8 -15 -18 -25 -27 -27 -166 -202 -268 -338 -101 -135 -214 -296 -389 -555
-65 -96 -138 -204 -164 -240 -45 -65 -62 -87 -242 -320 -186 -241 -295 -422
-284 -469 8 -32 23 -47 56 -55 55 -12 243 149 391 336 107 135 231 312 529
758 146 217 286 424 311 460 26 36 58 81 72 100 14 19 91 125 171 235 261 360
452 635 560 812 58 97 66 99 60 17 -3 -38 -7 -112 -10 -164 -5 -98 -11 -203
-20 -325 -12 -177 -20 -306 -30 -480 -3 -55 -8 -127 -10 -160 -2 -33 -4 -80
-4 -105 -1 -42 -12 -62 -149 -255 -368 -521 -1148 -1671 -1258 -1855 -21 -36
-41 -67 -44 -70 -3 -3 -11 -16 -19 -30 -8 -14 -43 -74 -78 -134 -68 -116 -99
-171 -158 -280 -31 -58 -36 -74 -28 -100 9 -34 44 -57 73 -49 17 5 126 134
246 293 149 196 434 604 434 620 0 5 3 10 8 12 4 2 63 89 132 193 354 536 825
1244 826 1242 3 -3 16 -863 14 -906 -1 -44 -45 -110 -309 -460 -298 -395 -539
-713 -553 -731 -7 -8 -60 -76 -118 -150 -57 -74 -110 -142 -117 -150 -315
-392 -653 -882 -653 -947 0 -26 44 -63 76 -63 27 0 106 64 216 174 180 180
343 379 544 661 117 164 152 215 313 450 41 61 147 211 235 335 88 124 207
295 264 380 57 85 107 158 110 162 4 4 8 -46 8 -110 1 -64 4 -207 8 -317 6
-213 18 -655 20 -768 l1 -68 -94 -117 c-101 -127 -333 -435 -452 -601 -41 -56
-91 -126 -111 -155 -21 -28 -53 -73 -72 -101 -20 -27 -107 -150 -193 -272 -87
-122 -192 -271 -233 -331 l-74 -109 -56 112 c-137 276 -388 577 -691 830 -82
68 -381 315 -419 345 -114 92 -299 211 -405 262 -27 13 -75 39 -105 59 -216
141 -415 207 -589 196 -47 -3 -99 -8 -114 -12 -40 -8 -138 -46 -164 -63 -13
-8 -23 -10 -23 -6 0 5 16 53 35 108 66 185 131 424 151 553 3 21 7 48 9 61 26
159 24 400 -5 527 -7 28 -14 61 -16 75 -5 27 -25 80 -57 150 -68 145 -175 259
-306 326 -108 55 -197 73 -331 70 -124 -4 -131 -5 -229 -36 -392 -127 -731
-559 -880 -1120 -17 -63 -33 -128 -36 -145 -2 -16 -9 -55 -15 -85 -6 -30 -13
-68 -16 -85 -2 -16 -9 -43 -13 -60 -9 -29 -189 -450 -344 -800 -41 -93 -89
-204 -107 -245 -17 -41 -38 -88 -45 -105 -7 -16 -37 -86 -65 -155 -29 -69 -58
-138 -65 -155 -7 -16 -27 -66 -45 -110 -18 -44 -36 -89 -41 -100 -79 -182
-237 -611 -368 -1000 -133 -393 -224 -632 -322 -852 -72 -162 -75 -168 -76
-140 -3 122 -94 360 -209 549 -91 149 -190 273 -368 458 -111 116 -180 206
-216 283 -24 50 -27 63 -18 100 17 79 65 131 576 627 234 228 354 400 416 597
121 389 -33 817 -353 978 -235 117 -543 65 -863 -146 -53 -35 -134 -86 -180
-112 -46 -26 -122 -76 -170 -110 -112 -80 -481 -374 -612 -487 -204 -177 -406
-398 -524 -575 -59 -89 -153 -270 -186 -357 -32 -85 -72 -255 -80 -334 -7 -64
-7 -258 -1 -309 45 -395 223 -797 541 -1220 223 -298 522 -588 783 -762 271
-180 588 -233 863 -143 101 33 132 49 211 101 31 22 57 36 57 31 0 -4 -11 -51
-25 -105 -13 -54 -27 -119 -31 -145 -3 -26 -8 -50 -10 -54 -11 -18 -19 -149
-18 -313 0 -150 4 -195 22 -269 112 -451 466 -678 924 -591 59 11 189 63 263
106 301 172 556 520 762 1039 71 181 90 238 240 730 127 421 191 597 493 1375
282 726 312 805 470 1264 49 146 92 266 94 268 2 2 9 -20 16 -49 7 -29 20 -71
30 -93 10 -22 24 -56 32 -75 33 -79 156 -258 248 -360 101 -111 247 -254 440
-430 171 -156 226 -222 255 -308 11 -32 11 -43 -5 -85 -21 -54 -66 -126 -110
-176 -33 -37 -178 -197 -196 -215 -65 -68 -212 -255 -274 -348 -169 -252 -240
-463 -235 -698 6 -246 93 -456 261 -624 255 -256 617 -331 969 -201 318 117
648 410 1038 918 206 268 356 534 442 783 82 237 114 479 90 678 -4 28 -8 66
-10 84 -2 18 -7 36 -9 41 -3 5 16 37 42 72 138 183 234 321 605 877 161 240
310 462 331 492 85 120 160 225 167 233 4 5 8 -240 8 -545 1 -304 3 -656 5
-783 1 -126 -1 -239 -5 -250 -4 -11 -44 -68 -90 -126 -46 -58 -95 -121 -109
-139 -14 -18 -30 -38 -35 -44 -6 -6 -22 -27 -35 -46 -13 -19 -27 -37 -30 -40
-10 -8 -206 -271 -310 -415 -167 -232 -308 -425 -343 -470 -13 -16 -121 -163
-240 -325 -119 -162 -220 -299 -225 -305 -28 -35 -220 -321 -286 -425 -44 -69
-89 -141 -101 -160 -33 -52 -92 -154 -141 -246 -37 -68 -43 -86 -35 -107 11
-29 42 -42 68 -28 10 5 57 49 104 98 73 76 121 129 268 298 15 17 55 68 91
114 36 46 77 98 91 115 32 39 217 294 290 401 31 44 145 211 254 370 183 267
380 548 552 784 109 151 185 256 227 315 22 31 41 54 43 52 1 -1 4 -218 6
-482 l3 -479 -100 -118 c-56 -65 -122 -144 -147 -175 -55 -67 -195 -276 -289
-432 -21 -34 -169 -253 -214 -315 -19 -27 -41 -59 -48 -69 -12 -17 -240 -322
-558 -746 -95 -127 -319 -436 -380 -527 -8 -11 -43 -61 -76 -110 -345 -498
-450 -660 -550 -853 -28 -52 -65 -128 -82 -169 -31 -69 -32 -75 -17 -97 8 -13
19 -24 23 -25 4 0 15 -2 24 -4 26 -5 61 27 160 148 95 117 207 272 381 529
124 183 189 277 231 335 17 23 49 67 71 98 22 32 45 63 50 69 6 6 22 27 35 46
38 56 227 312 449 610 286 385 296 399 403 550 85 120 135 195 341 510 62 96
148 220 184 265 34 44 35 46 72 98 19 26 35 47 36 47 2 0 3 -192 4 -427 1
-236 3 -513 5 -618 2 -119 0 -197 -7 -210 -5 -10 -35 -53 -65 -95 -31 -41 -78
-106 -106 -145 -73 -100 -460 -617 -479 -640 -15 -19 -185 -242 -284 -373 -27
-35 -53 -68 -58 -75 -6 -7 -26 -32 -45 -57 -19 -25 -40 -52 -47 -60 -7 -8 -48
-62 -93 -120 -44 -58 -92 -121 -108 -140 -185 -237 -370 -472 -391 -499 -46
-59 -121 -155 -134 -171 -31 -38 -247 -321 -287 -376 -246 -338 -278 -383
-427 -609 -108 -163 -226 -360 -229 -381 -3 -20 31 -54 54 -54 11 0 53 40 103
96 46 54 89 102 94 108 6 6 39 45 73 86 35 41 74 86 86 100 45 50 325 400 469
585 81 104 160 206 175 225 26 34 376 493 410 538 9 13 94 123 187 246 94 122
181 237 195 256 14 18 43 56 65 85 67 86 82 107 302 404 117 157 216 291 221
296 15 19 117 161 217 301 55 77 104 141 109 142 11 2 14 -135 20 -853 l4
-500 -166 -245 c-280 -414 -508 -739 -724 -1031 -86 -115 -274 -353 -542 -684
-160 -198 -138 -171 -247 -310 -132 -170 -200 -265 -204 -285 -5 -23 28 -66
55 -73 12 -3 35 5 57 20 39 26 172 134 232 188 36 32 243 243 282 286 71 80
90 101 154 179 276 333 667 878 991 1378 71 110 130 199 131 198 0 0 4 -26 7
-56 21 -180 17 -150 41 -330 10 -69 17 -138 18 -155 0 -53 -159 -305 -367
-578 -67 -89 -144 -191 -171 -227 -27 -36 -55 -71 -62 -78 -7 -7 -13 -17 -13
-20 0 -4 -10 -18 -23 -32 -12 -14 -29 -35 -37 -47 -112 -160 -160 -234 -160
-244 0 -21 32 -49 56 -49 62 0 425 364 619 620 27 36 53 70 58 75 4 6 35 51
69 100 l60 90 -6 -90 c-4 -49 -9 -99 -11 -110 -3 -11 -7 -33 -9 -50 -44 -274
-232 -584 -471 -775 -264 -210 -553 -342 -1015 -464 -179 -48 -312 -78 -400
-92 -19 -3 -51 -9 -70 -14 -41 -10 -138 -26 -310 -49 -47 -7 -96 -14 -110 -16
-14 -2 -54 -6 -90 -10 -36 -4 -76 -8 -90 -10 -14 -2 -59 -6 -100 -10 -41 -3
-95 -8 -120 -10 -479 -43 -1529 -52 -2370 -20 -58 2 -190 6 -295 10 -237 7
-409 13 -595 20 -80 3 -210 8 -290 10 -80 3 -206 7 -280 10 -204 7 -435 15
-630 20 -318 9 -795 30 -920 40 -30 3 -86 7 -125 10 -185 14 -314 25 -345 29
-27 5 -123 16 -174 21 -29 3 -172 22 -226 30 -14 2 -43 6 -65 10 -242 35 -616
114 -840 176 -407 113 -723 259 -970 448 -112 85 -335 322 -335 356 0 4 -13
25 -29 48 -86 126 -165 326 -212 537 -26 121 -26 119 -35 177 -5 26 -9 50 -9
53 -1 3 -5 32 -9 65 -5 33 -10 67 -11 75 -3 17 -15 124 -20 190 -24 267 -24
913 0 1235 2 28 6 104 10 170 3 66 8 140 10 165 2 25 6 86 9 135 3 50 8 115
10 145 3 30 8 96 11 145 3 50 8 115 10 145 5 60 13 210 21 360 7 154 7 755 -1
1025 -4 138 -8 297 -10 355 -2 58 -6 218 -10 355 -3 138 -8 293 -10 345 -23
592 -23 1792 0 2590 40 1357 45 1817 31 2940 -7 614 -13 925 -21 1163 -3 92
-4 167 -2 167 2 0 32 -11 68 -25z m12339 -1581 c44 -14 80 -27 80 -28 0 -2
-41 -38 -91 -81 -53 -46 -94 -74 -97 -67 -12 18 -4 172 8 187 15 19 7 20 100
-11z m355 -113 c6 -3 39 -15 75 -26 l64 -21 -74 -64 c-75 -64 -492 -378 -514
-386 -8 -3 -12 18 -13 67 l-2 72 82 77 c45 43 134 128 197 189 106 103 117
111 145 105 16 -3 35 -9 40 -13z m469 -162 c348 -126 486 -184 731 -306 464
-230 858 -537 1175 -913 30 -36 57 -67 60 -70 44 -42 216 -292 309 -448 165
-280 352 -737 427 -1047 1 -5 16 -66 33 -135 26 -109 45 -195 66 -305 18 -95
37 -202 40 -234 3 -20 6 -46 9 -58 3 -12 7 -46 10 -75 4 -29 8 -62 10 -73 2
-11 7 -51 10 -90 4 -38 9 -86 11 -105 4 -36 13 -158 21 -290 5 -84 5 -563 0
-655 -6 -104 -25 -307 -41 -435 -1 -14 -6 -50 -9 -80 -4 -30 -9 -62 -11 -70
-2 -8 -7 -35 -10 -60 -11 -85 -66 -345 -102 -480 -80 -307 -184 -593 -316
-870 -37 -77 -161 -309 -180 -334 -4 -6 -37 -58 -74 -116 -38 -58 -71 -109
-76 -115 -4 -5 -40 -53 -80 -106 -128 -170 -188 -239 -357 -409 -209 -208
-546 -474 -745 -586 -11 -6 -65 -37 -120 -69 -104 -60 -364 -191 -425 -215
-19 -7 -39 -17 -45 -22 -16 -14 -25 -9 -25 15 0 76 -108 117 -169 63 -9 -7
-68 -49 -131 -92 -134 -90 -233 -158 -275 -189 -30 -22 -180 -65 -384 -110
l-104 -23 34 26 c18 15 41 34 49 42 8 8 36 31 60 50 51 40 42 33 175 138 108
86 229 201 258 244 9 15 17 38 17 50 0 28 -35 88 -52 89 -7 0 -23 2 -36 5 -17
3 -36 -9 -75 -45 -29 -27 -70 -66 -92 -87 -22 -21 -110 -89 -195 -152 -85 -63
-161 -119 -167 -125 -10 -7 -13 11 -13 85 l0 94 43 45 c65 66 126 120 262 230
59 48 257 219 299 258 93 88 106 103 112 127 14 55 -44 120 -98 110 -13 -3
-25 -5 -28 -5 -6 -1 -43 -34 -115 -100 -52 -48 -211 -176 -350 -281 -60 -46
-115 -87 -121 -91 -7 -6 -10 20 -9 81 2 103 6 110 105 183 30 22 57 43 60 46
3 4 43 32 90 63 47 31 135 96 195 145 61 49 160 128 220 177 61 48 130 104
155 125 25 20 102 67 171 103 809 424 1383 1074 1622 1836 20 62 34 89 58 110
71 61 179 137 269 190 52 30 101 62 108 71 27 33 2 109 -45 130 -51 23 -73 16
-250 -79 -20 -11 -39 -18 -41 -15 -2 2 -1 20 2 39 5 26 18 43 54 69 49 36 201
128 265 161 47 24 61 48 53 91 -8 39 -46 68 -88 67 -16 0 -77 -25 -136 -54
-59 -29 -110 -54 -113 -56 -3 -1 -5 8 -3 20 1 13 3 40 3 60 1 36 5 40 88 94
150 97 246 218 246 311 0 47 -36 83 -83 83 -41 0 -59 -16 -80 -69 -17 -43 -54
-86 -104 -122 -53 -39 -62 -37 -62 14 -1 23 -4 92 -8 152 l-7 111 33 24 c111
81 327 278 347 318 24 46 -8 107 -60 115 -31 6 -50 -4 -129 -68 -93 -75 -210
-158 -215 -153 -3 2 -7 22 -10 44 -4 21 -10 54 -15 72 -7 27 -5 37 10 52 34
34 164 128 255 184 50 30 98 63 108 72 45 45 -2 143 -64 130 -47 -9 -238 -100
-320 -152 l-39 -24 -6 25 c-4 14 -5 27 -3 29 2 1 36 24 74 51 106 73 210 183
246 260 29 61 30 67 16 89 -30 46 -47 40 -219 -75 -89 -60 -166 -109 -171
-109 -4 0 -10 7 -14 15 -4 11 21 43 75 98 282 289 451 530 426 609 -4 13 -16
31 -27 40 -17 16 -23 16 -55 2 -54 -22 -111 -72 -294 -255 -152 -153 -214
-208 -221 -198 -8 11 -77 190 -77 198 0 13 140 153 209 211 88 72 204 175 227
201 26 29 36 77 22 104 -24 47 -51 65 -93 65 -37 0 -52 -8 -110 -56 -38 -30
-107 -83 -154 -116 -47 -33 -117 -85 -154 -115 -38 -30 -70 -53 -72 -51 -1 1
-20 31 -40 66 l-37 63 29 22 c97 76 203 180 286 281 75 92 76 131 7 179 -51
35 -77 24 -181 -76 -52 -50 -134 -120 -181 -154 l-85 -61 -65 81 -65 81 38 36
c21 19 57 51 80 70 160 133 264 271 251 335 -7 40 -50 75 -91 75 -43 -1 -54
-9 -108 -81 -47 -64 -110 -119 -234 -206 l-85 -60 -77 74 c-42 40 -77 77 -76
81 0 4 32 34 71 67 39 33 116 103 171 156 99 95 100 97 94 135 -8 47 -33 73
-78 80 -39 6 -25 16 -266 -178 -136 -110 -160 -126 -175 -115 -9 7 -55 39
-102 72 -47 33 -86 65 -86 71 0 5 41 41 92 80 207 156 279 266 218 332 -49 52
-106 41 -160 -33 -36 -48 -174 -164 -197 -166 -4 0 -39 -23 -77 -52 l-69 -52
-115 59 c-111 56 -114 59 -95 75 144 116 388 326 426 365 54 56 61 94 25 133
-38 40 -76 31 -165 -40 -43 -35 -125 -94 -183 -132 -132 -87 -278 -194 -313
-229 l-27 -27 -78 25 c-42 14 -106 34 -141 44 l-63 19 38 23 c134 80 211 139
296 231 199 214 265 278 338 324 41 27 76 49 78 50 7 5 10 47 5 61 -29 76
-200 -22 -489 -283 -103 -92 -189 -154 -309 -220 -55 -31 -122 -71 -149 -90
-48 -34 -50 -35 -115 -27 -36 4 -71 7 -78 5 -17 -2 -28 20 -14 29 7 4 40 34
74 67 34 32 125 115 202 183 256 228 439 416 511 526 20 30 8 71 -27 89 -32
17 -47 13 -108 -30 -123 -86 -253 -195 -659 -557 -19 -17 -35 -28 -38 -26 -2
3 -5 35 -7 72 l-3 68 56 47 c30 25 61 52 68 58 7 7 41 34 75 60 34 26 67 52
74 58 6 5 26 21 44 35 143 109 356 308 429 403 12 15 24 27 28 27 3 0 69 -23
146 -51z m-6254 -1406 c-1 -7 -14 -69 -25 -119 -3 -12 -21 -72 -41 -133 -25
-78 -42 -115 -57 -125 -44 -29 -132 -77 -149 -83 -10 -3 -18 -9 -18 -14 0 -5
-4 -9 -9 -9 -4 0 9 67 29 149 42 163 32 147 165 264 88 77 106 89 105 70z
m5634 -370 c593 -304 1005 -701 1259 -1213 97 -197 105 -216 162 -385 64 -192
141 -504 160 -645 3 -25 10 -70 15 -100 19 -116 32 -293 33 -455 1 -107 -10
-345 -17 -367 -3 -7 -7 -35 -10 -63 -15 -130 -62 -329 -97 -412 -10 -24 -16
-43 -14 -43 5 0 -61 -146 -108 -237 -38 -75 -143 -234 -200 -305 -274 -340
-723 -648 -1325 -909 -68 -30 -68 -29 -69 69 -1 48 -4 252 -7 453 -9 457 -14
965 -21 2059 -8 1196 -21 2361 -29 2585 -1 39 -1 75 1 82 5 13 89 -23 267
-114z m-5839 -279 c-8 -20 -15 -38 -15 -40 0 -2 -40 -31 -90 -63 -49 -33 -90
-56 -90 -51 0 21 23 57 45 71 12 8 35 24 51 36 36 28 108 81 112 82 1 1 -5
-15 -13 -35z m-195 -496 c-22 -57 -44 -108 -48 -113 -6 -9 -106 -65 -116 -65
-11 0 59 176 73 186 9 7 27 22 41 34 14 12 37 29 53 38 15 9 27 21 27 26 0 5
3 7 6 4 3 -4 -13 -53 -36 -110z m-2830 -112 c0 -3 -4 -8 -10 -11 -5 -3 -10 -1
-10 4 0 6 5 11 10 11 6 0 10 -2 10 -4z m2646 -367 c-19 -52 -39 -106 -44 -121
-9 -23 -120 -113 -129 -105 -1 2 17 57 41 123 43 119 43 119 102 161 33 23 60
40 61 39 2 -1 -12 -45 -31 -97z m-3036 -177 c-63 -59 -184 -175 -270 -259
-128 -125 -456 -403 -475 -403 -5 0 -5 1 98 125 57 70 132 138 323 295 303
250 427 350 434 350 3 -1 -47 -49 -110 -108z m4850 80 c25 -12 55 -30 68 -40
l23 -18 -26 -24 c-13 -13 -26 -22 -28 -19 -80 95 -109 137 -89 127 4 -2 27
-14 52 -26z m311 -304 c-13 -16 -27 -28 -31 -28 -3 0 -27 21 -53 46 l-47 47
27 31 27 31 51 -50 52 -50 -26 -27z m-2345 -229 c-77 -215 -73 -207 -138 -255
-34 -24 -62 -43 -64 -41 -2 2 20 70 49 151 l52 148 65 48 c36 26 66 47 67 45
2 -1 -12 -44 -31 -96z m2599 32 c36 -35 65 -67 65 -71 0 -5 -12 -18 -26 -29
l-26 -20 -67 67 -68 67 21 27 c12 15 24 26 28 25 4 -1 36 -31 73 -66z m295
-312 c7 -13 1 -22 -30 -44 -22 -16 -42 -26 -43 -24 -2 2 -19 27 -39 55 l-36
51 31 32 32 31 37 -43 c21 -23 42 -49 48 -58z m-6397 -198 c-14 -56 -23 -70
-77 -121 -34 -32 -86 -78 -116 -104 l-55 -45 -3 38 c-3 38 1 43 130 169 73 72
134 130 135 128 1 -1 -5 -30 -14 -65z m6581 -49 c39 -65 106 -197 106 -209 0
-9 -22 -34 -117 -138 l-63 -68 -1 34 c-3 95 -24 215 -52 295 l-15 40 50 52
c27 29 51 52 53 52 2 0 20 -26 39 -58z m-3329 -129 c-13 -32 -33 -83 -45 -113
-11 -30 -25 -64 -30 -75 -36 -81 -50 -115 -50 -123 0 -5 -18 -23 -40 -41 -22
-17 -38 -26 -36 -19 2 7 28 85 56 173 51 156 54 161 104 207 28 26 54 48 58
48 3 0 -4 -26 -17 -57z m-3269 -175 c7 -61 0 -72 -100 -158 l-49 -41 -19 44
-19 44 88 86 c48 47 89 84 90 83 2 -1 6 -27 9 -58z m6720 -259 c-9 -34 -31
-96 -50 -139 -68 -158 -367 -487 -681 -750 -31 -26 -27 -20 16 26 209 221 311
356 393 519 25 52 65 112 92 140 58 61 211 240 227 266 19 30 20 5 3 -62z
m-6586 -151 c0 -4 -17 -26 -38 -49 l-39 -41 -35 43 c-54 67 -54 65 -1 123 l48
53 32 -61 c18 -33 32 -64 33 -68z m179 -247 l51 -59 -31 -31 c-17 -17 -34 -31
-37 -31 -10 0 -92 93 -92 104 0 6 46 68 56 75 1 1 24 -26 53 -58z m2625 2 c-8
-21 -19 -47 -24 -58 -5 -11 -14 -37 -21 -57 -7 -21 -16 -38 -20 -38 -4 0 3 30
16 68 35 103 44 122 54 122 6 0 3 -17 -5 -37z m-2400 -255 c20 -24 36 -46 36
-49 0 -9 -48 -59 -57 -59 -11 0 -83 73 -83 84 0 11 50 66 61 66 3 0 23 -19 43
-42z m190 -249 c14 -23 25 -43 23 -45 -2 -3 -55 29 -85 51 -1 1 0 10 4 19 10
27 29 18 58 -25z m2005 -46 c-12 -32 -28 -65 -36 -73 -14 -14 13 66 38 111 19
37 18 18 -2 -38z m-143 -470 c-22 -82 -84 -272 -107 -333 -30 -78 -24 -72
-181 -209 l-38 -33 14 39 c8 21 43 99 79 173 35 74 79 169 97 210 24 54 47 88
84 122 28 27 52 48 54 48 2 0 1 -8 -2 -17z m-368 -862 c-13 -15 -25 -27 -27
-25 -4 4 39 54 47 54 2 0 -7 -13 -20 -29z m7648 -857 c-54 -36 -101 -62 -104
-59 -13 12 88 92 136 108 74 25 72 21 -32 -49z"/>
</g>
</svg>
